<mxfile host="app.diagrams.net" modified="2023-08-26T01:21:08.844Z" agent="Mozilla/5.0 (Windows NT 10.0; Win64; x64) AppleWebKit/537.36 (KHTML, like Gecko) Chrome/116.0.0.0 Safari/537.36" etag="pZ5jWxs_ZtQnaXeCkd6j" version="21.6.9" type="device">
  <diagram name="PÃ¡gina-1" id="gaQKq8PT9YEn8VLTx530">
    <mxGraphModel dx="794" dy="734" grid="1" gridSize="10" guides="1" tooltips="1" connect="1" arrows="1" fold="1" page="1" pageScale="1" pageWidth="827" pageHeight="1169" math="0" shadow="0">
      <root>
        <mxCell id="0" />
        <mxCell id="1" parent="0" />
        <mxCell id="KkJn7QVHv9WQBNd2l7bp-1" value="MATRICULA" style="swimlane;fontStyle=0;childLayout=stackLayout;horizontal=1;startSize=30;horizontalStack=0;resizeParent=1;resizeParentMax=0;resizeLast=0;collapsible=1;marginBottom=0;whiteSpace=wrap;html=1;fillColor=#73DEFF;" vertex="1" parent="1">
          <mxGeometry x="310" y="130" width="190" height="150" as="geometry" />
        </mxCell>
        <mxCell id="KkJn7QVHv9WQBNd2l7bp-2" value="COD_MATRICULA" style="text;strokeColor=none;fillColor=none;align=left;verticalAlign=middle;spacingLeft=4;spacingRight=4;overflow=hidden;points=[[0,0.5],[1,0.5]];portConstraint=eastwest;rotatable=0;whiteSpace=wrap;html=1;" vertex="1" parent="KkJn7QVHv9WQBNd2l7bp-1">
          <mxGeometry y="30" width="190" height="30" as="geometry" />
        </mxCell>
        <mxCell id="KkJn7QVHv9WQBNd2l7bp-3" value="COD_ALUNO" style="text;strokeColor=none;fillColor=none;align=left;verticalAlign=middle;spacingLeft=4;spacingRight=4;overflow=hidden;points=[[0,0.5],[1,0.5]];portConstraint=eastwest;rotatable=0;whiteSpace=wrap;html=1;" vertex="1" parent="KkJn7QVHv9WQBNd2l7bp-1">
          <mxGeometry y="60" width="190" height="30" as="geometry" />
        </mxCell>
        <mxCell id="KkJn7QVHv9WQBNd2l7bp-4" value="COD_CURSO" style="text;strokeColor=none;fillColor=none;align=left;verticalAlign=middle;spacingLeft=4;spacingRight=4;overflow=hidden;points=[[0,0.5],[1,0.5]];portConstraint=eastwest;rotatable=0;whiteSpace=wrap;html=1;" vertex="1" parent="KkJn7QVHv9WQBNd2l7bp-1">
          <mxGeometry y="90" width="190" height="30" as="geometry" />
        </mxCell>
        <mxCell id="KkJn7QVHv9WQBNd2l7bp-31" value="COD_DISCIPLINA MATRICULA" style="text;strokeColor=none;fillColor=none;align=left;verticalAlign=middle;spacingLeft=4;spacingRight=4;overflow=hidden;points=[[0,0.5],[1,0.5]];portConstraint=eastwest;rotatable=0;whiteSpace=wrap;html=1;" vertex="1" parent="KkJn7QVHv9WQBNd2l7bp-1">
          <mxGeometry y="120" width="190" height="30" as="geometry" />
        </mxCell>
        <mxCell id="KkJn7QVHv9WQBNd2l7bp-5" value="CURSO" style="swimlane;fontStyle=0;childLayout=stackLayout;horizontal=1;startSize=30;horizontalStack=0;resizeParent=1;resizeParentMax=0;resizeLast=0;collapsible=1;marginBottom=0;whiteSpace=wrap;html=1;fillColor=#73DEFF;" vertex="1" parent="1">
          <mxGeometry x="610" y="20" width="140" height="90" as="geometry" />
        </mxCell>
        <mxCell id="KkJn7QVHv9WQBNd2l7bp-6" value="COD_CURSO" style="text;strokeColor=none;fillColor=none;align=left;verticalAlign=middle;spacingLeft=4;spacingRight=4;overflow=hidden;points=[[0,0.5],[1,0.5]];portConstraint=eastwest;rotatable=0;whiteSpace=wrap;html=1;" vertex="1" parent="KkJn7QVHv9WQBNd2l7bp-5">
          <mxGeometry y="30" width="140" height="30" as="geometry" />
        </mxCell>
        <mxCell id="KkJn7QVHv9WQBNd2l7bp-7" value="NOM_CURSO" style="text;strokeColor=none;fillColor=none;align=left;verticalAlign=middle;spacingLeft=4;spacingRight=4;overflow=hidden;points=[[0,0.5],[1,0.5]];portConstraint=eastwest;rotatable=0;whiteSpace=wrap;html=1;" vertex="1" parent="KkJn7QVHv9WQBNd2l7bp-5">
          <mxGeometry y="60" width="140" height="30" as="geometry" />
        </mxCell>
        <mxCell id="KkJn7QVHv9WQBNd2l7bp-10" value="DISCIPLINA" style="swimlane;fontStyle=0;childLayout=stackLayout;horizontal=1;startSize=30;horizontalStack=0;resizeParent=1;resizeParentMax=0;resizeLast=0;collapsible=1;marginBottom=0;whiteSpace=wrap;html=1;fillColor=#73DEFF;" vertex="1" parent="1">
          <mxGeometry x="80" y="280" width="160" height="150" as="geometry" />
        </mxCell>
        <mxCell id="KkJn7QVHv9WQBNd2l7bp-11" value="COD_DISCIPLINA" style="text;strokeColor=none;fillColor=none;align=left;verticalAlign=middle;spacingLeft=4;spacingRight=4;overflow=hidden;points=[[0,0.5],[1,0.5]];portConstraint=eastwest;rotatable=0;whiteSpace=wrap;html=1;" vertex="1" parent="KkJn7QVHv9WQBNd2l7bp-10">
          <mxGeometry y="30" width="160" height="30" as="geometry" />
        </mxCell>
        <mxCell id="KkJn7QVHv9WQBNd2l7bp-12" value="NOM_DISCIPLINA" style="text;strokeColor=none;fillColor=none;align=left;verticalAlign=middle;spacingLeft=4;spacingRight=4;overflow=hidden;points=[[0,0.5],[1,0.5]];portConstraint=eastwest;rotatable=0;whiteSpace=wrap;html=1;" vertex="1" parent="KkJn7QVHv9WQBNd2l7bp-10">
          <mxGeometry y="60" width="160" height="30" as="geometry" />
        </mxCell>
        <mxCell id="KkJn7QVHv9WQBNd2l7bp-13" value="QTD_CARGA_HORARIA" style="text;strokeColor=none;fillColor=none;align=left;verticalAlign=middle;spacingLeft=4;spacingRight=4;overflow=hidden;points=[[0,0.5],[1,0.5]];portConstraint=eastwest;rotatable=0;whiteSpace=wrap;html=1;" vertex="1" parent="KkJn7QVHv9WQBNd2l7bp-10">
          <mxGeometry y="90" width="160" height="30" as="geometry" />
        </mxCell>
        <mxCell id="KkJn7QVHv9WQBNd2l7bp-41" value="COD_PROFS_DISCIPLINA" style="text;strokeColor=none;fillColor=none;align=left;verticalAlign=middle;spacingLeft=4;spacingRight=4;overflow=hidden;points=[[0,0.5],[1,0.5]];portConstraint=eastwest;rotatable=0;whiteSpace=wrap;html=1;" vertex="1" parent="KkJn7QVHv9WQBNd2l7bp-10">
          <mxGeometry y="120" width="160" height="30" as="geometry" />
        </mxCell>
        <mxCell id="KkJn7QVHv9WQBNd2l7bp-14" value="PROFESSOR" style="swimlane;fontStyle=0;childLayout=stackLayout;horizontal=1;startSize=30;horizontalStack=0;resizeParent=1;resizeParentMax=0;resizeLast=0;collapsible=1;marginBottom=0;whiteSpace=wrap;html=1;fillColor=#73DEFF;" vertex="1" parent="1">
          <mxGeometry x="600" y="360" width="140" height="120" as="geometry" />
        </mxCell>
        <mxCell id="KkJn7QVHv9WQBNd2l7bp-15" value="COD_PROFESSOR" style="text;strokeColor=none;fillColor=none;align=left;verticalAlign=middle;spacingLeft=4;spacingRight=4;overflow=hidden;points=[[0,0.5],[1,0.5]];portConstraint=eastwest;rotatable=0;whiteSpace=wrap;html=1;" vertex="1" parent="KkJn7QVHv9WQBNd2l7bp-14">
          <mxGeometry y="30" width="140" height="30" as="geometry" />
        </mxCell>
        <mxCell id="KkJn7QVHv9WQBNd2l7bp-16" value="NOM_PROFESSOR" style="text;strokeColor=none;fillColor=none;align=left;verticalAlign=middle;spacingLeft=4;spacingRight=4;overflow=hidden;points=[[0,0.5],[1,0.5]];portConstraint=eastwest;rotatable=0;whiteSpace=wrap;html=1;" vertex="1" parent="KkJn7QVHv9WQBNd2l7bp-14">
          <mxGeometry y="60" width="140" height="30" as="geometry" />
        </mxCell>
        <mxCell id="KkJn7QVHv9WQBNd2l7bp-17" value="VAL_SALARIO" style="text;strokeColor=none;fillColor=none;align=left;verticalAlign=middle;spacingLeft=4;spacingRight=4;overflow=hidden;points=[[0,0.5],[1,0.5]];portConstraint=eastwest;rotatable=0;whiteSpace=wrap;html=1;" vertex="1" parent="KkJn7QVHv9WQBNd2l7bp-14">
          <mxGeometry y="90" width="140" height="30" as="geometry" />
        </mxCell>
        <mxCell id="KkJn7QVHv9WQBNd2l7bp-26" value="ALUNO" style="swimlane;fontStyle=0;childLayout=stackLayout;horizontal=1;startSize=30;horizontalStack=0;resizeParent=1;resizeParentMax=0;resizeLast=0;collapsible=1;marginBottom=0;whiteSpace=wrap;html=1;fillColor=#73DEFF;" vertex="1" parent="1">
          <mxGeometry x="90" y="50" width="140" height="120" as="geometry" />
        </mxCell>
        <mxCell id="KkJn7QVHv9WQBNd2l7bp-27" value="COD_ALUNO" style="text;strokeColor=none;fillColor=none;align=left;verticalAlign=middle;spacingLeft=4;spacingRight=4;overflow=hidden;points=[[0,0.5],[1,0.5]];portConstraint=eastwest;rotatable=0;whiteSpace=wrap;html=1;" vertex="1" parent="KkJn7QVHv9WQBNd2l7bp-26">
          <mxGeometry y="30" width="140" height="30" as="geometry" />
        </mxCell>
        <mxCell id="KkJn7QVHv9WQBNd2l7bp-28" value="NOM_ALUNO" style="text;strokeColor=none;fillColor=none;align=left;verticalAlign=middle;spacingLeft=4;spacingRight=4;overflow=hidden;points=[[0,0.5],[1,0.5]];portConstraint=eastwest;rotatable=0;whiteSpace=wrap;html=1;" vertex="1" parent="KkJn7QVHv9WQBNd2l7bp-26">
          <mxGeometry y="60" width="140" height="30" as="geometry" />
        </mxCell>
        <mxCell id="KkJn7QVHv9WQBNd2l7bp-29" value="NUM_CPF" style="text;strokeColor=none;fillColor=none;align=left;verticalAlign=middle;spacingLeft=4;spacingRight=4;overflow=hidden;points=[[0,0.5],[1,0.5]];portConstraint=eastwest;rotatable=0;whiteSpace=wrap;html=1;" vertex="1" parent="KkJn7QVHv9WQBNd2l7bp-26">
          <mxGeometry y="90" width="140" height="30" as="geometry" />
        </mxCell>
        <mxCell id="KkJn7QVHv9WQBNd2l7bp-32" value="" style="endArrow=none;html=1;rounded=0;entryX=1;entryY=0.5;entryDx=0;entryDy=0;exitX=0;exitY=0.5;exitDx=0;exitDy=0;" edge="1" parent="1" source="KkJn7QVHv9WQBNd2l7bp-3" target="KkJn7QVHv9WQBNd2l7bp-27">
          <mxGeometry width="50" height="50" relative="1" as="geometry">
            <mxPoint x="380" y="300" as="sourcePoint" />
            <mxPoint x="430" y="250" as="targetPoint" />
          </mxGeometry>
        </mxCell>
        <mxCell id="KkJn7QVHv9WQBNd2l7bp-33" value="" style="endArrow=none;html=1;rounded=0;entryX=0;entryY=0.5;entryDx=0;entryDy=0;exitX=1.016;exitY=0.2;exitDx=0;exitDy=0;exitPerimeter=0;" edge="1" parent="1" source="KkJn7QVHv9WQBNd2l7bp-4">
          <mxGeometry width="50" height="50" relative="1" as="geometry">
            <mxPoint x="450" y="230" as="sourcePoint" />
            <mxPoint x="610" y="60" as="targetPoint" />
          </mxGeometry>
        </mxCell>
        <mxCell id="KkJn7QVHv9WQBNd2l7bp-35" value="PROFESSORES_DISCIPLINA" style="swimlane;fontStyle=0;childLayout=stackLayout;horizontal=1;startSize=30;horizontalStack=0;resizeParent=1;resizeParentMax=0;resizeLast=0;collapsible=1;marginBottom=0;whiteSpace=wrap;html=1;fillColor=#73DEFF;" vertex="1" parent="1">
          <mxGeometry x="320" y="420" width="170" height="120" as="geometry" />
        </mxCell>
        <mxCell id="KkJn7QVHv9WQBNd2l7bp-36" value="COD_PROFS_DISCIPLINA" style="text;strokeColor=none;fillColor=none;align=left;verticalAlign=middle;spacingLeft=4;spacingRight=4;overflow=hidden;points=[[0,0.5],[1,0.5]];portConstraint=eastwest;rotatable=0;whiteSpace=wrap;html=1;" vertex="1" parent="KkJn7QVHv9WQBNd2l7bp-35">
          <mxGeometry y="30" width="170" height="30" as="geometry" />
        </mxCell>
        <mxCell id="KkJn7QVHv9WQBNd2l7bp-37" value="COD_PROFESSOR" style="text;strokeColor=none;fillColor=none;align=left;verticalAlign=middle;spacingLeft=4;spacingRight=4;overflow=hidden;points=[[0,0.5],[1,0.5]];portConstraint=eastwest;rotatable=0;whiteSpace=wrap;html=1;" vertex="1" parent="KkJn7QVHv9WQBNd2l7bp-35">
          <mxGeometry y="60" width="170" height="30" as="geometry" />
        </mxCell>
        <mxCell id="KkJn7QVHv9WQBNd2l7bp-38" value="COD_DISCIPLINA" style="text;strokeColor=none;fillColor=none;align=left;verticalAlign=middle;spacingLeft=4;spacingRight=4;overflow=hidden;points=[[0,0.5],[1,0.5]];portConstraint=eastwest;rotatable=0;whiteSpace=wrap;html=1;" vertex="1" parent="KkJn7QVHv9WQBNd2l7bp-35">
          <mxGeometry y="90" width="170" height="30" as="geometry" />
        </mxCell>
        <mxCell id="KkJn7QVHv9WQBNd2l7bp-42" value="" style="endArrow=none;html=1;rounded=0;exitX=1;exitY=0.5;exitDx=0;exitDy=0;entryX=0;entryY=0.5;entryDx=0;entryDy=0;" edge="1" parent="1" source="KkJn7QVHv9WQBNd2l7bp-41" target="KkJn7QVHv9WQBNd2l7bp-36">
          <mxGeometry width="50" height="50" relative="1" as="geometry">
            <mxPoint x="250" y="450" as="sourcePoint" />
            <mxPoint x="310" y="460" as="targetPoint" />
          </mxGeometry>
        </mxCell>
        <mxCell id="KkJn7QVHv9WQBNd2l7bp-43" value="MATRICULA" style="swimlane;fontStyle=0;childLayout=stackLayout;horizontal=1;startSize=30;horizontalStack=0;resizeParent=1;resizeParentMax=0;resizeLast=0;collapsible=1;marginBottom=0;whiteSpace=wrap;html=1;fillColor=#73DEFF;" vertex="1" parent="1">
          <mxGeometry x="320" y="768" width="140" height="150" as="geometry" />
        </mxCell>
        <mxCell id="KkJn7QVHv9WQBNd2l7bp-44" value="COD_MATRICULA" style="text;strokeColor=none;fillColor=none;align=left;verticalAlign=middle;spacingLeft=4;spacingRight=4;overflow=hidden;points=[[0,0.5],[1,0.5]];portConstraint=eastwest;rotatable=0;whiteSpace=wrap;html=1;" vertex="1" parent="KkJn7QVHv9WQBNd2l7bp-43">
          <mxGeometry y="30" width="140" height="30" as="geometry" />
        </mxCell>
        <mxCell id="KkJn7QVHv9WQBNd2l7bp-45" value="COD_ALUNO" style="text;strokeColor=none;fillColor=none;align=left;verticalAlign=middle;spacingLeft=4;spacingRight=4;overflow=hidden;points=[[0,0.5],[1,0.5]];portConstraint=eastwest;rotatable=0;whiteSpace=wrap;html=1;" vertex="1" parent="KkJn7QVHv9WQBNd2l7bp-43">
          <mxGeometry y="60" width="140" height="30" as="geometry" />
        </mxCell>
        <mxCell id="KkJn7QVHv9WQBNd2l7bp-46" value="COD_CURSO" style="text;strokeColor=none;fillColor=none;align=left;verticalAlign=middle;spacingLeft=4;spacingRight=4;overflow=hidden;points=[[0,0.5],[1,0.5]];portConstraint=eastwest;rotatable=0;whiteSpace=wrap;html=1;" vertex="1" parent="KkJn7QVHv9WQBNd2l7bp-43">
          <mxGeometry y="90" width="140" height="30" as="geometry" />
        </mxCell>
        <mxCell id="KkJn7QVHv9WQBNd2l7bp-47" value="COD_DISCIPLINA" style="text;strokeColor=none;fillColor=none;align=left;verticalAlign=middle;spacingLeft=4;spacingRight=4;overflow=hidden;points=[[0,0.5],[1,0.5]];portConstraint=eastwest;rotatable=0;whiteSpace=wrap;html=1;" vertex="1" parent="KkJn7QVHv9WQBNd2l7bp-43">
          <mxGeometry y="120" width="140" height="30" as="geometry" />
        </mxCell>
        <mxCell id="KkJn7QVHv9WQBNd2l7bp-48" value="CURSO" style="swimlane;fontStyle=0;childLayout=stackLayout;horizontal=1;startSize=30;horizontalStack=0;resizeParent=1;resizeParentMax=0;resizeLast=0;collapsible=1;marginBottom=0;whiteSpace=wrap;html=1;fillColor=#73DEFF;" vertex="1" parent="1">
          <mxGeometry x="510" y="678" width="140" height="90" as="geometry" />
        </mxCell>
        <mxCell id="KkJn7QVHv9WQBNd2l7bp-49" value="COD_CURSO" style="text;strokeColor=none;fillColor=none;align=left;verticalAlign=middle;spacingLeft=4;spacingRight=4;overflow=hidden;points=[[0,0.5],[1,0.5]];portConstraint=eastwest;rotatable=0;whiteSpace=wrap;html=1;" vertex="1" parent="KkJn7QVHv9WQBNd2l7bp-48">
          <mxGeometry y="30" width="140" height="30" as="geometry" />
        </mxCell>
        <mxCell id="KkJn7QVHv9WQBNd2l7bp-50" value="NOM_CURSO" style="text;strokeColor=none;fillColor=none;align=left;verticalAlign=middle;spacingLeft=4;spacingRight=4;overflow=hidden;points=[[0,0.5],[1,0.5]];portConstraint=eastwest;rotatable=0;whiteSpace=wrap;html=1;" vertex="1" parent="KkJn7QVHv9WQBNd2l7bp-48">
          <mxGeometry y="60" width="140" height="30" as="geometry" />
        </mxCell>
        <mxCell id="KkJn7QVHv9WQBNd2l7bp-51" value="DISCIPLINA" style="swimlane;fontStyle=0;childLayout=stackLayout;horizontal=1;startSize=30;horizontalStack=0;resizeParent=1;resizeParentMax=0;resizeLast=0;collapsible=1;marginBottom=0;whiteSpace=wrap;html=1;fillColor=#73DEFF;" vertex="1" parent="1">
          <mxGeometry x="90" y="918" width="160" height="120" as="geometry" />
        </mxCell>
        <mxCell id="KkJn7QVHv9WQBNd2l7bp-52" value="COD_DISCIPLINA" style="text;strokeColor=none;fillColor=none;align=left;verticalAlign=middle;spacingLeft=4;spacingRight=4;overflow=hidden;points=[[0,0.5],[1,0.5]];portConstraint=eastwest;rotatable=0;whiteSpace=wrap;html=1;" vertex="1" parent="KkJn7QVHv9WQBNd2l7bp-51">
          <mxGeometry y="30" width="160" height="30" as="geometry" />
        </mxCell>
        <mxCell id="KkJn7QVHv9WQBNd2l7bp-53" value="NOM_DISCIPLINA" style="text;strokeColor=none;fillColor=none;align=left;verticalAlign=middle;spacingLeft=4;spacingRight=4;overflow=hidden;points=[[0,0.5],[1,0.5]];portConstraint=eastwest;rotatable=0;whiteSpace=wrap;html=1;" vertex="1" parent="KkJn7QVHv9WQBNd2l7bp-51">
          <mxGeometry y="60" width="160" height="30" as="geometry" />
        </mxCell>
        <mxCell id="KkJn7QVHv9WQBNd2l7bp-54" value="QTD_CARGA_HORARIA" style="text;strokeColor=none;fillColor=none;align=left;verticalAlign=middle;spacingLeft=4;spacingRight=4;overflow=hidden;points=[[0,0.5],[1,0.5]];portConstraint=eastwest;rotatable=0;whiteSpace=wrap;html=1;" vertex="1" parent="KkJn7QVHv9WQBNd2l7bp-51">
          <mxGeometry y="90" width="160" height="30" as="geometry" />
        </mxCell>
        <mxCell id="KkJn7QVHv9WQBNd2l7bp-56" value="PROFESSOR" style="swimlane;fontStyle=0;childLayout=stackLayout;horizontal=1;startSize=30;horizontalStack=0;resizeParent=1;resizeParentMax=0;resizeLast=0;collapsible=1;marginBottom=0;whiteSpace=wrap;html=1;fillColor=#73DEFF;" vertex="1" parent="1">
          <mxGeometry x="520" y="918" width="140" height="120" as="geometry" />
        </mxCell>
        <mxCell id="KkJn7QVHv9WQBNd2l7bp-57" value="COD_PROFESSOR" style="text;strokeColor=none;fillColor=none;align=left;verticalAlign=middle;spacingLeft=4;spacingRight=4;overflow=hidden;points=[[0,0.5],[1,0.5]];portConstraint=eastwest;rotatable=0;whiteSpace=wrap;html=1;" vertex="1" parent="KkJn7QVHv9WQBNd2l7bp-56">
          <mxGeometry y="30" width="140" height="30" as="geometry" />
        </mxCell>
        <mxCell id="KkJn7QVHv9WQBNd2l7bp-58" value="NOM_PROFESSOR" style="text;strokeColor=none;fillColor=none;align=left;verticalAlign=middle;spacingLeft=4;spacingRight=4;overflow=hidden;points=[[0,0.5],[1,0.5]];portConstraint=eastwest;rotatable=0;whiteSpace=wrap;html=1;" vertex="1" parent="KkJn7QVHv9WQBNd2l7bp-56">
          <mxGeometry y="60" width="140" height="30" as="geometry" />
        </mxCell>
        <mxCell id="KkJn7QVHv9WQBNd2l7bp-59" value="VAL_SALARIO" style="text;strokeColor=none;fillColor=none;align=left;verticalAlign=middle;spacingLeft=4;spacingRight=4;overflow=hidden;points=[[0,0.5],[1,0.5]];portConstraint=eastwest;rotatable=0;whiteSpace=wrap;html=1;" vertex="1" parent="KkJn7QVHv9WQBNd2l7bp-56">
          <mxGeometry y="90" width="140" height="30" as="geometry" />
        </mxCell>
        <mxCell id="KkJn7QVHv9WQBNd2l7bp-60" value="ALUNO" style="swimlane;fontStyle=0;childLayout=stackLayout;horizontal=1;startSize=30;horizontalStack=0;resizeParent=1;resizeParentMax=0;resizeLast=0;collapsible=1;marginBottom=0;whiteSpace=wrap;html=1;fillColor=#73DEFF;" vertex="1" parent="1">
          <mxGeometry x="100" y="688" width="140" height="120" as="geometry" />
        </mxCell>
        <mxCell id="KkJn7QVHv9WQBNd2l7bp-61" value="COD_ALUNO" style="text;strokeColor=none;fillColor=none;align=left;verticalAlign=middle;spacingLeft=4;spacingRight=4;overflow=hidden;points=[[0,0.5],[1,0.5]];portConstraint=eastwest;rotatable=0;whiteSpace=wrap;html=1;" vertex="1" parent="KkJn7QVHv9WQBNd2l7bp-60">
          <mxGeometry y="30" width="140" height="30" as="geometry" />
        </mxCell>
        <mxCell id="KkJn7QVHv9WQBNd2l7bp-62" value="NOM_ALUNO" style="text;strokeColor=none;fillColor=none;align=left;verticalAlign=middle;spacingLeft=4;spacingRight=4;overflow=hidden;points=[[0,0.5],[1,0.5]];portConstraint=eastwest;rotatable=0;whiteSpace=wrap;html=1;" vertex="1" parent="KkJn7QVHv9WQBNd2l7bp-60">
          <mxGeometry y="60" width="140" height="30" as="geometry" />
        </mxCell>
        <mxCell id="KkJn7QVHv9WQBNd2l7bp-63" value="NUM_CPF" style="text;strokeColor=none;fillColor=none;align=left;verticalAlign=middle;spacingLeft=4;spacingRight=4;overflow=hidden;points=[[0,0.5],[1,0.5]];portConstraint=eastwest;rotatable=0;whiteSpace=wrap;html=1;" vertex="1" parent="KkJn7QVHv9WQBNd2l7bp-60">
          <mxGeometry y="90" width="140" height="30" as="geometry" />
        </mxCell>
        <mxCell id="KkJn7QVHv9WQBNd2l7bp-64" value="" style="endArrow=none;html=1;rounded=0;entryX=1;entryY=0.5;entryDx=0;entryDy=0;exitX=0;exitY=0.5;exitDx=0;exitDy=0;" edge="1" parent="1" source="KkJn7QVHv9WQBNd2l7bp-45" target="KkJn7QVHv9WQBNd2l7bp-61">
          <mxGeometry width="50" height="50" relative="1" as="geometry">
            <mxPoint x="390" y="938" as="sourcePoint" />
            <mxPoint x="440" y="888" as="targetPoint" />
          </mxGeometry>
        </mxCell>
        <mxCell id="KkJn7QVHv9WQBNd2l7bp-65" value="" style="endArrow=none;html=1;rounded=0;entryX=0;entryY=0.5;entryDx=0;entryDy=0;exitX=1;exitY=0.5;exitDx=0;exitDy=0;" edge="1" parent="1" source="KkJn7QVHv9WQBNd2l7bp-46" target="KkJn7QVHv9WQBNd2l7bp-49">
          <mxGeometry width="50" height="50" relative="1" as="geometry">
            <mxPoint x="480" y="818" as="sourcePoint" />
            <mxPoint x="400" y="678" as="targetPoint" />
          </mxGeometry>
        </mxCell>
        <mxCell id="KkJn7QVHv9WQBNd2l7bp-66" value="" style="endArrow=none;html=1;rounded=0;exitX=1;exitY=0.5;exitDx=0;exitDy=0;entryX=0;entryY=0.5;entryDx=0;entryDy=0;" edge="1" parent="1" source="KkJn7QVHv9WQBNd2l7bp-52" target="KkJn7QVHv9WQBNd2l7bp-47">
          <mxGeometry width="50" height="50" relative="1" as="geometry">
            <mxPoint x="270" y="978" as="sourcePoint" />
            <mxPoint x="320" y="928" as="targetPoint" />
          </mxGeometry>
        </mxCell>
        <mxCell id="KkJn7QVHv9WQBNd2l7bp-67" value="PROFESSORES_DISCIPLINA" style="swimlane;fontStyle=0;childLayout=stackLayout;horizontal=1;startSize=30;horizontalStack=0;resizeParent=1;resizeParentMax=0;resizeLast=0;collapsible=1;marginBottom=0;whiteSpace=wrap;html=1;fillColor=#73DEFF;" vertex="1" parent="1">
          <mxGeometry x="310" y="998" width="170" height="120" as="geometry" />
        </mxCell>
        <mxCell id="KkJn7QVHv9WQBNd2l7bp-68" value="COD_PROFS_DISCIPLINA" style="text;strokeColor=none;fillColor=none;align=left;verticalAlign=middle;spacingLeft=4;spacingRight=4;overflow=hidden;points=[[0,0.5],[1,0.5]];portConstraint=eastwest;rotatable=0;whiteSpace=wrap;html=1;" vertex="1" parent="KkJn7QVHv9WQBNd2l7bp-67">
          <mxGeometry y="30" width="170" height="30" as="geometry" />
        </mxCell>
        <mxCell id="KkJn7QVHv9WQBNd2l7bp-69" value="COD_PROFESSOR" style="text;strokeColor=none;fillColor=none;align=left;verticalAlign=middle;spacingLeft=4;spacingRight=4;overflow=hidden;points=[[0,0.5],[1,0.5]];portConstraint=eastwest;rotatable=0;whiteSpace=wrap;html=1;" vertex="1" parent="KkJn7QVHv9WQBNd2l7bp-67">
          <mxGeometry y="60" width="170" height="30" as="geometry" />
        </mxCell>
        <mxCell id="KkJn7QVHv9WQBNd2l7bp-70" value="COD_DISCIPLINA" style="text;strokeColor=none;fillColor=none;align=left;verticalAlign=middle;spacingLeft=4;spacingRight=4;overflow=hidden;points=[[0,0.5],[1,0.5]];portConstraint=eastwest;rotatable=0;whiteSpace=wrap;html=1;" vertex="1" parent="KkJn7QVHv9WQBNd2l7bp-67">
          <mxGeometry y="90" width="170" height="30" as="geometry" />
        </mxCell>
        <mxCell id="KkJn7QVHv9WQBNd2l7bp-71" value="" style="endArrow=none;html=1;rounded=0;exitX=-0.012;exitY=0.3;exitDx=0;exitDy=0;exitPerimeter=0;" edge="1" parent="1" source="KkJn7QVHv9WQBNd2l7bp-70">
          <mxGeometry width="50" height="50" relative="1" as="geometry">
            <mxPoint x="390" y="1038" as="sourcePoint" />
            <mxPoint x="250" y="963" as="targetPoint" />
          </mxGeometry>
        </mxCell>
        <mxCell id="KkJn7QVHv9WQBNd2l7bp-72" value="" style="endArrow=none;html=1;rounded=0;exitX=1;exitY=0.5;exitDx=0;exitDy=0;" edge="1" parent="1" source="KkJn7QVHv9WQBNd2l7bp-69">
          <mxGeometry width="50" height="50" relative="1" as="geometry">
            <mxPoint x="470" y="1008" as="sourcePoint" />
            <mxPoint x="520" y="958" as="targetPoint" />
          </mxGeometry>
        </mxCell>
        <mxCell id="KkJn7QVHv9WQBNd2l7bp-74" value="DISCIPLINAS_MATRICULA" style="swimlane;fontStyle=0;childLayout=stackLayout;horizontal=1;startSize=30;horizontalStack=0;resizeParent=1;resizeParentMax=0;resizeLast=0;collapsible=1;marginBottom=0;whiteSpace=wrap;html=1;fillColor=#73DEFF;" vertex="1" parent="1">
          <mxGeometry x="570" y="180" width="190" height="120" as="geometry" />
        </mxCell>
        <mxCell id="KkJn7QVHv9WQBNd2l7bp-75" value="COD_DISCIPLINA_MATRICULA" style="text;strokeColor=none;fillColor=none;align=left;verticalAlign=middle;spacingLeft=4;spacingRight=4;overflow=hidden;points=[[0,0.5],[1,0.5]];portConstraint=eastwest;rotatable=0;whiteSpace=wrap;html=1;" vertex="1" parent="KkJn7QVHv9WQBNd2l7bp-74">
          <mxGeometry y="30" width="190" height="30" as="geometry" />
        </mxCell>
        <mxCell id="KkJn7QVHv9WQBNd2l7bp-76" value="COD_MATRICULA" style="text;strokeColor=none;fillColor=none;align=left;verticalAlign=middle;spacingLeft=4;spacingRight=4;overflow=hidden;points=[[0,0.5],[1,0.5]];portConstraint=eastwest;rotatable=0;whiteSpace=wrap;html=1;" vertex="1" parent="KkJn7QVHv9WQBNd2l7bp-74">
          <mxGeometry y="60" width="190" height="30" as="geometry" />
        </mxCell>
        <mxCell id="KkJn7QVHv9WQBNd2l7bp-77" value="COD_DISCIPLINA" style="text;strokeColor=none;fillColor=none;align=left;verticalAlign=middle;spacingLeft=4;spacingRight=4;overflow=hidden;points=[[0,0.5],[1,0.5]];portConstraint=eastwest;rotatable=0;whiteSpace=wrap;html=1;" vertex="1" parent="KkJn7QVHv9WQBNd2l7bp-74">
          <mxGeometry y="90" width="190" height="30" as="geometry" />
        </mxCell>
        <mxCell id="KkJn7QVHv9WQBNd2l7bp-79" value="" style="endArrow=none;html=1;rounded=0;entryX=0;entryY=0.5;entryDx=0;entryDy=0;exitX=1.018;exitY=0.233;exitDx=0;exitDy=0;exitPerimeter=0;" edge="1" parent="1" source="KkJn7QVHv9WQBNd2l7bp-36" target="KkJn7QVHv9WQBNd2l7bp-15">
          <mxGeometry width="50" height="50" relative="1" as="geometry">
            <mxPoint x="470" y="440" as="sourcePoint" />
            <mxPoint x="520" y="390" as="targetPoint" />
          </mxGeometry>
        </mxCell>
        <mxCell id="KkJn7QVHv9WQBNd2l7bp-80" value="" style="endArrow=none;html=1;rounded=0;exitX=1;exitY=0.5;exitDx=0;exitDy=0;entryX=0;entryY=0.5;entryDx=0;entryDy=0;" edge="1" parent="1" source="KkJn7QVHv9WQBNd2l7bp-31" target="KkJn7QVHv9WQBNd2l7bp-75">
          <mxGeometry width="50" height="50" relative="1" as="geometry">
            <mxPoint x="520" y="265" as="sourcePoint" />
            <mxPoint x="570" y="215" as="targetPoint" />
          </mxGeometry>
        </mxCell>
        <mxCell id="KkJn7QVHv9WQBNd2l7bp-81" value="" style="endArrow=none;html=1;rounded=0;exitX=1;exitY=0.5;exitDx=0;exitDy=0;entryX=0;entryY=0.5;entryDx=0;entryDy=0;" edge="1" parent="1" source="KkJn7QVHv9WQBNd2l7bp-11" target="KkJn7QVHv9WQBNd2l7bp-77">
          <mxGeometry width="50" height="50" relative="1" as="geometry">
            <mxPoint x="380" y="380" as="sourcePoint" />
            <mxPoint x="430" y="330" as="targetPoint" />
          </mxGeometry>
        </mxCell>
      </root>
    </mxGraphModel>
  </diagram>
</mxfile>
